<svg width="286" height="178" viewBox="0 0 286 178" fill="none" xmlns="http://www.w3.org/2000/svg">
<g id="&#208;&#160;&#208;&#181;&#209;&#129;&#209;&#131;&#209;&#128;&#209;&#129; 1 1">
<g id="&#208;&#161;&#208;&#187;&#208;&#190;&#208;&#185; 2">
<g id="Shadow">
<path id="&#60;Path&#62;" d="M143 177.993C221.977 177.993 286 174.252 286 169.637C286 165.022 221.977 161.281 143 161.281C64.0233 161.281 0 165.022 0 169.637C0 174.252 64.0233 177.993 143 177.993Z" fill="#F5F5F5"/>
</g>
<g id="Speech bubble">
<path id="Vector" d="M42.15 0H20.9607C20.1039 -5.48658e-07 19.2555 0.16902 18.464 0.497396C17.6725 0.825773 16.9534 1.30707 16.3479 1.91376C15.7424 2.52045 15.2623 3.24064 14.9351 4.03315C14.6079 4.82566 14.44 5.67494 14.4409 6.53245V24.9857C14.4409 26.7162 15.1278 28.3759 16.3505 29.5996C17.5732 30.8233 19.2315 31.5108 20.9607 31.5108H35.9842L40.4094 37.342V31.5108H42.1426C43 31.5127 43.8494 31.3454 44.6422 31.0183C45.4349 30.6913 46.1553 30.2109 46.7623 29.6048C47.3693 28.9987 47.8509 28.2788 48.1794 27.4861C48.508 26.6935 48.6771 25.8438 48.6771 24.9857V6.53245C48.6771 5.6746 48.5083 4.82514 48.1803 4.03259C47.8523 3.24004 47.3715 2.5199 46.7654 1.91331C46.1593 1.30672 45.4397 0.825539 44.6478 0.497253C43.8559 0.168967 43.0071 0 42.15 0V0Z" fill="#407BFF"/>
<path id="Vector_2" opacity="0.7" d="M42.15 0H20.9607C20.1039 -5.48658e-07 19.2555 0.16902 18.464 0.497396C17.6725 0.825773 16.9534 1.30707 16.3479 1.91376C15.7424 2.52045 15.2623 3.24064 14.9351 4.03315C14.6079 4.82566 14.44 5.67494 14.4409 6.53245V24.9857C14.4409 26.7162 15.1278 28.3759 16.3505 29.5996C17.5732 30.8233 19.2315 31.5108 20.9607 31.5108H35.9842L40.4094 37.342V31.5108H42.1426C43 31.5127 43.8494 31.3454 44.6422 31.0183C45.4349 30.6913 46.1553 30.2109 46.7623 29.6048C47.3693 28.9987 47.8509 28.2788 48.1794 27.4861C48.508 26.6935 48.6771 25.8438 48.6771 24.9857V6.53245C48.6771 5.6746 48.5083 4.82514 48.1803 4.03259C47.8523 3.24004 47.3715 2.5199 46.7654 1.91331C46.1593 1.30672 45.4397 0.825539 44.6478 0.497253C43.8559 0.168967 43.0071 0 42.15 0V0Z" fill="white"/>
<g id="Group">
<path id="Vector_3" d="M38.9928 23.1221C43.1001 19.0115 43.1001 12.347 38.9928 8.23643C34.8856 4.12588 28.2265 4.12588 24.1193 8.23643C20.0121 12.347 20.0121 19.0115 24.1193 23.1221C28.2265 27.2326 34.8856 27.2326 38.9928 23.1221Z" fill="#407BFF"/>
</g>
<path id="Vector_4" d="M30.4528 20.3798C30.3128 20.3791 30.1745 20.3485 30.0473 20.2899C29.9201 20.2314 29.8068 20.1462 29.7153 20.0402L25.5925 15.1686C25.4376 14.9716 25.3651 14.7222 25.3904 14.4728C25.4157 14.2235 25.5368 13.9937 25.7281 13.8319C25.9194 13.6702 26.1659 13.5891 26.4158 13.6057C26.6657 13.6223 26.8993 13.7354 27.0675 13.9211L30.4528 17.9144L36.0507 11.3155C36.2169 11.1198 36.4541 10.9981 36.71 10.9774C36.9658 10.9566 37.2195 11.0384 37.4151 11.2048C37.6107 11.3712 37.7322 11.6086 37.753 11.8646C37.7737 12.1207 37.692 12.3746 37.5257 12.5703L31.1903 20.0402C31.0994 20.147 30.9863 20.2326 30.8589 20.2913C30.7316 20.3499 30.593 20.3801 30.4528 20.3798Z" fill="white"/>
</g>
<g id="Character">
<path id="Vector_5" d="M109.605 130.701L125.439 129.911L123.905 143.699C123.905 143.699 112.916 145.803 108.011 137.979L109.605 130.701Z" fill="#EBB376"/>
<path id="Vector_6" d="M135.647 134.723L132.04 144.718L123.898 143.699L125.439 129.918L135.647 134.723Z" fill="#EBB376"/>
<path id="Vector_7" d="M94.4039 153.066C100.43 149.918 105.923 145.841 110.681 140.983L109.604 130.723C94.64 132.937 86.0035 136.104 86.0035 136.104C86.0035 136.104 91.5497 116.174 86.4755 108.955L72.5509 111.458C72.5509 111.458 57.7486 142.252 67.7053 153.066H94.4039Z" fill="#407BFF"/>
<path id="Vector_8" d="M94.404 153.066C100.429 149.917 105.922 145.84 110.681 140.983L109.597 130.708C95.1195 132.834 86.5567 135.875 86.0331 136.074C86.2174 135.336 91.4613 116.064 86.483 108.941L72.5584 111.458C69.694 117.641 67.4197 124.082 65.7657 130.693C63.7744 139.101 63.1917 148.15 67.7202 153.066H94.404Z" fill="#95D893"/>
<path id="Vector_9" opacity="0.2" d="M82.928 153.066C87.8474 121.865 83.4886 113.945 83.4886 113.945L65.7878 130.686C63.7965 139.093 63.2138 148.143 67.7423 153.059L82.928 153.066Z" fill="black"/>
<path id="Vector_10" d="M79.8525 153.066C83.164 137.292 86.8959 112.609 86.4903 108.933C85.8929 103.597 56.8489 80.6924 31.6474 97.3667C26.4847 100.769 23.8517 137.469 22.9519 153.066H79.8525Z" fill="#407BFF"/>
<path id="Vector_11" d="M79.8525 153.066C83.1714 137.292 86.8959 112.609 86.4903 108.926C85.9002 103.597 56.8562 80.6998 31.6474 97.3667C29.7814 98.6142 28.2474 104.253 26.9788 111.694C25.2825 121.791 24.1246 135.262 23.4313 145.412C23.2395 148.283 23.0773 150.881 22.9519 153.073L79.8525 153.066Z" fill="#95D893"/>
<path id="Vector_12" d="M67.4104 29.6212C58.6707 26.0855 38.064 38.774 36.2571 61.405C34.4501 84.0361 45.9114 77.7546 45.9114 77.7546C45.9114 77.7546 47.9396 86.3612 56.3032 83.7187C56.3032 83.7187 63.1991 91.5429 69.5787 88.3615C69.5787 88.3615 77.5662 96.6876 81.8513 92.2884C81.8513 92.2884 86.5125 97.6177 90.768 93.5801C95.0236 89.5425 107.185 48.4066 88.1055 38.8921C69.0256 29.3776 67.4104 29.6212 67.4104 29.6212Z" fill="#263238"/>
<path id="Vector_13" d="M67.4251 122.197L66.5843 122.124C67.5505 111.229 65.1609 106.401 65.1093 106.357L65.8468 105.973C65.9869 106.173 68.4208 111.022 67.4251 122.197Z" fill="#263238"/>
<path id="Vector_14" d="M71.3783 122.323C65.5886 108.668 72.1158 105.494 72.3739 105.346L72.7279 106.084L72.5509 105.7L72.7279 106.084C72.6689 106.084 66.7097 109.11 72.1527 121.946L71.3783 122.323Z" fill="#263238"/>
<path id="Vector_15" d="M65.7214 108.601C65.7214 108.601 54.5478 99.7435 37.201 94.7537L31.6401 97.3667C31.6401 97.3667 22.3029 85.7928 37.8648 82.0136C53.4267 78.2344 74.5939 88.6568 79.9041 97.5881C85.2143 106.52 70.6702 109.398 70.6702 109.398C70.6702 109.398 69.3279 107.582 65.7214 108.601Z" fill="#407BFF"/>
<path id="Vector_16" d="M65.7214 108.601C65.7214 108.601 54.5478 99.7435 37.201 94.7537L31.6401 97.3667C31.6401 97.3667 22.3029 85.7928 37.8648 82.0136C53.4267 78.2344 74.5939 88.6568 79.9041 97.5881C85.2143 106.52 70.6702 109.398 70.6702 109.398C70.6702 109.398 69.3279 107.582 65.7214 108.601Z" fill="#7EB57C"/>
<path id="Vector_17" d="M72.4625 122.16C72.4625 122.306 72.4192 122.449 72.3382 122.571C72.2571 122.692 72.142 122.787 72.0072 122.842C71.8724 122.898 71.7241 122.913 71.5811 122.884C71.438 122.856 71.3066 122.786 71.2034 122.682C71.1003 122.579 71.0301 122.448 71.0016 122.304C70.9731 122.161 70.9877 122.013 71.0436 121.878C71.0994 121.743 71.1939 121.628 71.3152 121.547C71.4365 121.466 71.5791 121.422 71.725 121.422C71.9206 121.422 72.1082 121.5 72.2465 121.639C72.3848 121.777 72.4625 121.965 72.4625 122.16Z" fill="white"/>
<path id="Vector_18" d="M67.6684 122.16C67.6684 122.306 67.6252 122.449 67.5441 122.571C67.4631 122.692 67.3479 122.787 67.2131 122.842C67.0784 122.898 66.9301 122.913 66.787 122.884C66.6439 122.856 66.5125 122.786 66.4094 122.682C66.3062 122.579 66.236 122.448 66.2075 122.304C66.1791 122.161 66.1937 122.013 66.2495 121.878C66.3053 121.743 66.3999 121.628 66.5211 121.547C66.6424 121.466 66.785 121.422 66.9309 121.422C67.1265 121.422 67.3141 121.5 67.4524 121.639C67.5907 121.777 67.6684 121.965 67.6684 122.16Z" fill="white"/>
<path id="Vector_19" d="M59.7843 66.8376C59.1057 74.7652 56.6792 88.8561 50.2406 91.9341C50.2406 91.9341 57.4389 93.4103 68.6789 107.671C75.0733 103.176 72.6542 100.12 72.6542 100.12C65.1756 95.2114 67.1153 89.1587 70.1392 83.8811L59.7843 66.8376Z" fill="#EBB376"/>
<path id="Vector_20" opacity="0.2" d="M63.9956 73.813L70.1171 83.9254C69.3921 85.1461 68.7751 86.4279 68.2733 87.7563C65.3231 86.184 62.0927 81.1721 62.7049 77.7546C62.8909 76.3729 63.3284 75.0369 63.9956 73.813Z" fill="black"/>
<path id="Vector_21" d="M58.9066 50.1116C56.8489 62.5565 55.7131 67.7677 60.3227 75.7838C67.2481 87.8374 82.5961 88.3984 88.2308 77.0017C93.3124 66.7491 95.8274 48.1187 85.2365 39.8885C74.8004 31.7839 60.9643 37.6446 58.9066 50.1116Z" fill="#EBB376"/>
<path id="Vector_22" d="M84.3883 32.9575C92.4495 37.4379 100.127 51.4107 88.6586 47.9194C86.9254 51.2779 80.7523 48.2073 77.1605 44.1697C76.5557 46.9672 69.9401 49.7721 65.0797 45.4393C67.4324 48.842 63.4276 57.4117 59.2606 55.9281C55.0935 54.4444 45.7269 52.5106 54.0241 39.298C62.3214 26.0855 75.7813 28.1744 84.3883 32.9575Z" fill="#263238"/>
<path id="Vector_23" d="M81.453 61.8553C81.453 61.8553 82.1905 66.8007 83.5918 69.4802C82.0135 70.3881 79.9042 69.1701 79.9042 69.1701L81.453 61.8553Z" fill="#D58745"/>
<path id="Vector_24" d="M73.4138 71.3845C73.9369 71.6429 74.4825 71.8529 75.0438 72.0119C75.0821 72.0217 75.122 72.0234 75.1611 72.017C75.2001 72.0106 75.2374 71.9962 75.2706 71.9747C75.3038 71.9533 75.3323 71.9252 75.3542 71.8922C75.376 71.8592 75.3909 71.8221 75.3978 71.7831C75.416 71.702 75.4024 71.617 75.3599 71.5456C75.3174 71.4742 75.2491 71.4218 75.1692 71.3993C73.9002 71.0434 72.7271 70.407 71.7366 69.5371C70.7461 68.6671 69.9633 67.5857 69.4459 66.3726C69.4372 66.3317 69.4199 66.293 69.3952 66.2593C69.3705 66.2255 69.3388 66.1974 69.3024 66.1768C69.2659 66.1562 69.2256 66.1436 69.1839 66.1398C69.1422 66.1361 69.1002 66.1412 69.0607 66.1549C69.0212 66.1686 68.985 66.1906 68.9546 66.2194C68.9242 66.2482 68.9003 66.2831 68.8844 66.3218C68.8685 66.3606 68.861 66.4022 68.8625 66.4441C68.8639 66.4859 68.8743 66.527 68.8928 66.5645C69.7532 68.6749 71.3637 70.3919 73.4138 71.3845Z" fill="#263238"/>
<path id="Vector_25" d="M52.645 59.0504C53.3378 61.6409 55.0303 63.85 57.3504 65.1916C60.3522 66.8377 62.5131 64.018 62.2919 60.5045C62.0632 57.3453 60.2194 52.6803 56.93 52.4958C53.6406 52.3113 51.7525 55.7805 52.645 59.0504Z" fill="#EBB376"/>
<path id="Vector_26" d="M72.5656 50.4512C72.64 50.4841 72.7204 50.5012 72.8017 50.5012C72.8829 50.5012 72.9633 50.4841 73.0377 50.4512C73.6908 50.0832 74.4252 49.8837 75.1746 49.8708C75.924 49.8579 76.6648 50.032 77.3301 50.3774C77.3966 50.4187 77.471 50.4458 77.5485 50.4571C77.626 50.4683 77.7049 50.4633 77.7804 50.4425C77.8559 50.4217 77.9263 50.3855 77.9872 50.3362C78.048 50.2869 78.098 50.2255 78.134 50.1559C78.207 50.0073 78.2225 49.8369 78.1775 49.6775C78.1326 49.5181 78.0304 49.3809 77.8906 49.2923C77.0575 48.8355 76.1228 48.5961 75.1728 48.5961C74.2228 48.5961 73.2882 48.8355 72.455 49.2923C72.3546 49.3578 72.274 49.4495 72.222 49.5576C72.1699 49.6656 72.1484 49.7859 72.1598 49.9053C72.1712 50.0247 72.2151 50.1387 72.2866 50.2349C72.3582 50.3311 72.4547 50.4059 72.5656 50.4512Z" fill="#263238"/>
<path id="Vector_27" d="M92.3831 55.3081C92.518 55.3833 92.6771 55.4019 92.8256 55.3597C92.9018 55.3332 92.9719 55.2919 93.0321 55.2382C93.0922 55.1845 93.1412 55.1194 93.1761 55.0467C93.2111 54.974 93.2313 54.8951 93.2357 54.8146C93.2401 54.734 93.2286 54.6534 93.2018 54.5773C92.932 53.6176 92.445 52.7329 91.7787 51.9918C91.1124 51.2507 90.2845 50.673 89.3593 50.3035C89.2833 50.2778 89.2027 50.2685 89.1229 50.2762C89.0431 50.2839 88.9658 50.3084 88.8961 50.3482C88.8264 50.3879 88.7659 50.442 88.7186 50.5068C88.6714 50.5716 88.6383 50.6458 88.6217 50.7243C88.583 50.8856 88.6053 51.0555 88.6843 51.2013C88.7632 51.3471 88.8933 51.4585 89.0495 51.5141C89.7778 51.815 90.4277 52.2788 90.9493 52.8699C91.4708 53.4609 91.8503 54.1637 92.0586 54.9242C92.0833 55.0072 92.1249 55.0841 92.1808 55.1501C92.2366 55.2162 92.3055 55.2699 92.3831 55.3081Z" fill="#263238"/>
<path id="Vector_28" d="M76.5262 58.6001C76.1648 59.5818 75.3461 60.1797 74.6897 59.9435C74.0333 59.7073 73.7973 58.7109 74.1587 57.7291C74.5201 56.7474 75.3388 56.1422 75.9952 56.3784C76.6516 56.6146 76.8876 57.6184 76.5262 58.6001Z" fill="#263238"/>
<path id="Vector_29" d="M75.7075 56.3267L78.1488 56.275C78.1488 56.275 76.4229 57.6849 75.7075 56.3267Z" fill="#263238"/>
<path id="Vector_30" d="M88.9168 62.527C88.5554 63.5087 87.7293 64.1139 87.0729 63.8704C86.4165 63.6268 86.1805 62.6377 86.5419 61.656C86.9033 60.6743 87.7293 60.069 88.3857 60.3126C89.0421 60.5562 89.2781 61.5453 88.9168 62.527Z" fill="#263238"/>
<path id="Vector_31" d="M88.0907 60.2535L90.5393 60.2019C90.5393 60.2019 88.8135 61.6117 88.0907 60.2535Z" fill="#263238"/>
<path id="Vector_32" d="M75.3683 65.5754C74.6053 65.5798 73.8505 65.4186 73.1557 65.103C72.4183 64.7637 71.7629 64.2687 71.2346 63.6521C70.7063 63.0354 70.3175 62.3117 70.0949 61.5305C69.6245 59.8452 69.7577 58.0482 70.4716 56.4508C71.1855 54.8534 72.435 53.5562 74.0039 52.7837C74.7306 52.4183 75.5295 52.2192 76.3426 52.2007C77.1556 52.1823 77.9627 52.3449 78.7052 52.677C79.4478 53.009 80.1073 53.5021 80.6361 54.1205C81.1649 54.739 81.5497 55.4673 81.7627 56.2529C82.2593 57.9369 82.1283 59.744 81.3939 61.3386C80.6997 62.955 79.445 64.2658 77.8611 65.0292C77.0785 65.3867 76.2286 65.5729 75.3683 65.5754ZM76.5262 53.0272C75.7807 53.0315 75.0454 53.2004 74.3726 53.5218C72.986 54.2077 71.8823 55.3568 71.2521 56.7705C70.6219 58.1842 70.5048 59.7738 70.921 61.2648C71.0984 61.9397 71.4251 62.5662 71.877 63.0978C72.3288 63.6294 72.8943 64.0525 73.5316 64.336C74.1688 64.6194 74.8616 64.7559 75.5587 64.7354C76.2557 64.7149 76.9393 64.5378 77.5588 64.2173C78.9569 63.5478 80.0652 62.394 80.6785 60.9695L81.062 61.1467L80.6785 60.9695C81.3238 59.5619 81.4416 57.969 81.0104 56.4817C80.8245 55.8146 80.4961 55.1959 80.0479 54.6682C79.5997 54.1406 79.0423 53.7167 78.4143 53.4258C77.8181 53.1704 77.1746 53.0446 76.5262 53.0568V53.0272Z" fill="#263238"/>
<path id="Vector_33" d="M87.6408 69.3325C86.8784 69.3392 86.1236 69.1806 85.4282 68.8675C84.6902 68.529 84.0344 68.0343 83.506 67.4175C82.9776 66.8007 82.5891 66.0766 82.3675 65.295C81.8981 63.6079 82.0335 61.8097 82.7502 60.2121C83.4669 58.6144 84.7196 57.3182 86.2911 56.5481C87.0181 56.1841 87.8167 55.9861 88.6294 55.9684C89.4421 55.9506 90.2486 56.1135 90.9908 56.4453C91.7329 56.7772 92.3923 57.2697 92.9213 57.8874C93.4503 58.5051 93.8358 59.2325 94.05 60.0173C94.5466 61.7013 94.4155 63.5085 93.6812 65.1031C93.1819 66.3109 92.348 67.3508 91.2778 68.1001C90.2076 68.8495 88.9457 69.2771 87.6408 69.3325ZM88.8135 56.7843C88.068 56.7886 87.3327 56.9575 86.6599 57.2789C85.2748 57.9646 84.1722 59.1124 83.5421 60.5246C82.912 61.9367 82.7939 63.5246 83.2082 65.0145C83.3932 65.6811 83.7214 66.2992 84.1698 66.8258C84.6182 67.3523 85.176 67.7745 85.8044 68.063C88.3857 69.2218 91.5866 67.7234 92.9215 64.7192C93.5725 63.3134 93.693 61.7193 93.2608 60.2314C93.0731 59.5661 92.7439 58.9492 92.2958 58.4231C91.8477 57.8969 91.2913 57.4739 90.6647 57.1829C90.079 56.9379 89.4481 56.8196 88.8135 56.836V56.7843Z" fill="#263238"/>
<path id="Vector_34" d="M82.3749 61.6412C82.3613 61.5873 82.3347 61.5376 82.2974 61.4964C82.2601 61.4553 82.2132 61.4239 82.161 61.405C81.8371 61.3441 81.5022 61.3935 81.2096 61.5453L80.8408 60.8071C81.3428 60.5541 81.92 60.4937 82.4634 60.6374C82.6325 60.6994 82.7862 60.7975 82.9135 60.925C83.0409 61.0525 83.139 61.2062 83.2009 61.3755L82.3749 61.6412Z" fill="#263238"/>
<path id="Vector_35" d="M60.8708 53.557L60.6217 54.3607L70.5542 57.4435L70.8033 56.6398L60.8708 53.557Z" fill="#263238"/>
<path id="Vector_36" opacity="0.2" d="M59.8655 131.387C59.8655 131.387 40.461 146.268 23.4314 145.412C24.1247 135.27 25.2826 121.791 26.9715 111.701C28.7121 109.775 29.8553 108.616 29.8553 108.616L40.1807 116.344L37.6658 119.496C37.6658 119.496 53.2941 118.706 58.737 119.496L59.8655 131.387Z" fill="black"/>
<path id="Vector_37" d="M61.8715 119.488L77.3597 116.329L77.9202 130.184C77.9202 130.184 67.4104 133.926 61.3848 126.958L61.8715 119.488Z" fill="#EBB376"/>
<path id="Vector_38" d="M88.2161 119.533L86.1657 129.963L77.957 130.184L77.3965 116.329L88.2161 119.533Z" fill="#EBB376"/>
<path id="Vector_39" d="M61.8715 119.488L62.6311 130.184L58.7665 131.919L57.1144 119.488H61.8715Z" fill="#407BFF"/>
<path id="Vector_40" d="M61.8715 119.488L62.6311 130.184L58.7665 131.919L57.1144 119.488H61.8715Z" fill="#95D893"/>
<path id="Vector_41" d="M37.2011 94.7537C33.0359 95.4918 29.2646 97.677 26.5511 100.924C21.8678 106.431 5.36181 122.788 9.02735 136.133C12.6929 149.479 47.9911 139.551 58.7739 131.919L57.1218 119.488L32.6726 121.29L40.2102 116.329C45.3729 101.921 37.2011 94.7537 37.2011 94.7537Z" fill="#407BFF"/>
<path id="Vector_42" d="M37.2011 94.7537C33.0359 95.4918 29.2646 97.677 26.5511 100.924C21.8678 106.431 5.36181 122.788 9.02735 136.133C12.6929 149.479 47.9911 139.551 58.7739 131.919L57.1218 119.488L32.6726 121.29L40.2102 116.329C45.3729 101.921 37.2011 94.7537 37.2011 94.7537Z" fill="#95D893"/>
<path id="Vector_43" d="M108.004 130.937L112.459 130.184V142.119L108.933 142.695L108.004 130.937Z" fill="#407BFF"/>
<path id="Vector_44" d="M108.004 130.937L112.459 130.184V142.119L108.933 142.695L108.004 130.937Z" fill="#95D893"/>
</g>
<g id="Table">
<path id="Vector_45" d="M272.953 168.958L14.3007 168.958C13.4322 168.958 12.5993 168.613 11.9852 167.998C11.3711 167.383 11.0261 166.55 11.0261 165.681V157.709L276.228 157.709V165.681C276.228 166.55 275.883 167.383 275.269 167.998C274.654 168.613 273.822 168.958 272.953 168.958Z" fill="#407BFF"/>
<path id="Vector_46" opacity="0.2" d="M11.0187 163.333L276.228 163.333V157.709L11.0187 157.709V163.333Z" fill="black"/>
<path id="Vector_47" d="M5.46509 159.178H281.789C282.629 159.178 283.434 158.844 284.029 158.251C284.623 157.657 284.958 156.852 284.96 156.011C284.958 155.171 284.623 154.365 284.029 153.772C283.434 153.178 282.629 152.845 281.789 152.845H5.46509C5.04896 152.844 4.63673 152.925 4.25201 153.083C3.86728 153.242 3.51761 153.475 3.22302 153.769C2.92844 154.064 2.69472 154.413 2.53525 154.798C2.37578 155.182 2.2937 155.595 2.2937 156.011C2.2937 156.428 2.37578 156.84 2.53525 157.225C2.69472 157.609 2.92844 157.959 3.22302 158.253C3.51761 158.547 3.86728 158.78 4.25201 158.939C4.63673 159.098 5.04896 159.179 5.46509 159.178Z" fill="#407BFF"/>
</g>
<g id="Device 2">
<path id="Vector_48" d="M263.063 114.13L254.994 150.756C254.847 151.343 254.509 151.866 254.034 152.242C253.56 152.619 252.974 152.828 252.369 152.837H208.301C208.027 152.83 207.758 152.759 207.515 152.631C207.273 152.502 207.064 152.319 206.904 152.096C206.744 151.873 206.637 151.616 206.593 151.345C206.549 151.074 206.568 150.797 206.649 150.534L214.703 114.196C214.868 113.642 215.218 113.162 215.695 112.836C216.171 112.509 216.745 112.356 217.321 112.402H261.396C262.561 112.402 263.299 112.934 263.063 114.13Z" fill="#263238"/>
<path id="Vector_49" opacity="0.4" d="M263.063 114.13L254.994 150.756C254.846 151.343 254.509 151.866 254.034 152.242C253.56 152.619 252.974 152.828 252.369 152.837H209.798C209.523 152.831 209.253 152.761 209.01 152.633C208.766 152.505 208.556 152.322 208.394 152.099C208.233 151.876 208.125 151.619 208.08 151.348C208.034 151.076 208.052 150.798 208.131 150.534L216.2 114.196C216.364 113.64 216.715 113.158 217.194 112.831C217.672 112.505 218.248 112.353 218.826 112.402H261.396C262.561 112.402 263.299 112.934 263.063 114.13Z" fill="white"/>
<path id="Vector_50" d="M256.034 151.686L264.036 115.244C264.302 114.048 263.557 113.517 262.369 113.517H219.821C219.246 113.468 218.672 113.618 218.195 113.944C217.718 114.269 217.367 114.749 217.203 115.303L209.053 152.158L256.034 151.686Z" fill="#407BFF"/>
<path id="Vector_51" opacity="0.4" d="M264.036 115.237L259.81 134.487L256.012 151.686L230.862 151.937L209.046 152.158L217.159 115.303C217.322 114.75 217.67 114.27 218.146 113.944C218.622 113.619 219.196 113.468 219.77 113.517H262.355C263.579 113.517 264.324 114.056 264.036 115.237Z" fill="white"/>
<path id="Vector_52" opacity="0.2" d="M259.825 134.487L256.027 151.686L230.877 151.937H209.983L213.405 136.214C213.515 135.727 213.786 135.292 214.174 134.978C214.562 134.665 215.045 134.492 215.544 134.487H259.825Z" fill="black"/>
<path id="Vector_53" d="M260.548 136.886C260.386 136.33 260.037 135.848 259.559 135.52C259.082 135.193 258.506 135.042 257.93 135.093H215.359C214.172 135.093 213.434 135.631 213.692 136.827L216.923 151.479H209.732C209.552 151.479 209.379 151.551 209.252 151.678C209.125 151.805 209.053 151.978 209.053 152.158C209.053 152.338 209.125 152.511 209.252 152.638C209.379 152.766 209.552 152.837 209.732 152.837H262.17C262.398 152.833 262.623 152.778 262.827 152.676C263.031 152.574 263.21 152.428 263.351 152.249C263.492 152.07 263.592 151.861 263.643 151.639C263.694 151.416 263.695 151.185 263.645 150.962L260.548 136.886Z" fill="#407BFF"/>
<path id="Vector_54" opacity="0.4" d="M260.548 136.886C260.386 136.33 260.037 135.848 259.559 135.52C259.082 135.193 258.506 135.042 257.93 135.093H215.359C214.172 135.093 213.434 135.631 213.692 136.827L216.923 151.479H209.732C209.552 151.479 209.379 151.551 209.252 151.678C209.125 151.805 209.053 151.978 209.053 152.158C209.053 152.338 209.125 152.511 209.252 152.638C209.379 152.766 209.552 152.837 209.732 152.837H262.17C262.398 152.833 262.623 152.778 262.827 152.676C263.031 152.574 263.21 152.428 263.351 152.249C263.492 152.07 263.592 151.861 263.643 151.639C263.694 151.416 263.695 151.185 263.645 150.962L260.548 136.886Z" fill="white"/>
<path id="Vector_55" d="M208.456 145.773H205.985L205.675 147.109H208.08L208.456 145.773Z" fill="black"/>
<path id="Vector_56" d="M192.842 153.014H185.725C185.622 153.001 185.528 152.95 185.46 152.872C185.391 152.794 185.354 152.694 185.354 152.59C185.354 152.486 185.391 152.386 185.46 152.308C185.528 152.23 185.622 152.179 185.725 152.165H192.842C194.013 152.163 195.168 151.897 196.222 151.385C197.275 150.874 198.2 150.132 198.927 149.213C199.738 148.202 200.765 147.387 201.933 146.827C203.101 146.268 204.38 145.978 205.675 145.98H206.929C207.032 145.994 207.127 146.044 207.195 146.122C207.263 146.2 207.301 146.301 207.301 146.404C207.301 146.508 207.263 146.608 207.195 146.687C207.127 146.765 207.032 146.815 206.929 146.829H205.675C204.507 146.827 203.352 147.088 202.298 147.592C201.243 148.097 200.316 148.832 199.583 149.744C198.778 150.762 197.753 151.584 196.586 152.15C195.419 152.717 194.139 153.012 192.842 153.014Z" fill="black"/>
</g>
<g id="Device 1">
<path id="Vector_57" d="M74.2473 147.796V150.881C74.2473 152.269 75.9141 152.837 77.3081 152.837H185.415C186.787 152.837 188.417 152.269 188.417 150.881V147.796H74.2473Z" fill="#263238"/>
<path id="Vector_58" opacity="0.4" d="M74.2473 147.796V150.881C74.2473 152.269 75.9141 152.837 77.3081 152.837H185.415C186.787 152.837 188.417 152.269 188.417 150.881V147.796H74.2473Z" fill="white"/>
<path id="Vector_59" opacity="0.2" d="M111.08 147.796V150.881C111.08 152.269 112.724 152.837 114.111 152.837H185.415C186.787 152.837 188.417 152.269 188.417 150.881V147.796H111.08Z" fill="black"/>
<path id="Vector_60" d="M206.509 89.2547L193.639 147.678C193.404 148.614 192.866 149.446 192.11 150.045C191.354 150.644 190.422 150.977 189.457 150.992H119.156C117.282 150.992 116.08 149.25 116.515 147.301L129.37 89.3285C129.806 87.4167 131.657 86.4645 133.552 86.4645H203.854C205.771 86.4867 206.922 87.3429 206.509 89.2547Z" fill="#263238"/>
<path id="Vector_61" opacity="0.4" d="M206.509 89.2547L193.639 147.678C193.404 148.614 192.866 149.446 192.11 150.045C191.354 150.644 190.421 150.977 189.457 150.992H121.545C119.657 150.992 118.47 149.25 118.89 147.301L131.76 89.3285C132.18 87.4167 134.054 86.4645 135.942 86.4645H203.854C205.771 86.4867 206.922 87.3429 206.509 89.2547Z" fill="white"/>
</g>
</g>
<g id="Xnix/Line/Diamond">
<g id="Vector_62">
<path id="Vector_642" fill-rule="evenodd" clip-rule="evenodd" d="M171.741 117.678L169.164 113.921L166.014 113.968L167.33 117.744L163.108 130.459L171.741 117.678Z" stroke="#82CFF5" stroke-linecap="round" stroke-linejoin="round"/>
<path id="Vector_642-2" d="M153.68 117.67C153.53 117.902 153.598 118.212 153.83 118.361C154.062 118.51 154.372 118.443 154.521 118.211L153.68 117.67ZM156.564 114.108L156.557 113.608C156.389 113.611 156.234 113.697 156.143 113.838L156.564 114.108ZM159.722 114.561C159.998 114.557 160.218 114.33 160.214 114.054C160.21 113.778 159.983 113.557 159.707 113.562L159.722 114.561ZM154.506 117.648C154.345 117.424 154.032 117.373 153.808 117.535C153.584 117.696 153.533 118.008 153.694 118.233L154.506 117.648ZM163.108 130.459L162.702 130.751C162.848 130.953 163.122 131.017 163.342 130.9C163.563 130.784 163.664 130.522 163.578 130.287L163.108 130.459ZM158.98 117.703C158.885 117.444 158.598 117.311 158.339 117.405C158.079 117.5 157.946 117.787 158.041 118.047L158.98 117.703ZM154.093 117.441C153.817 117.445 153.596 117.672 153.6 117.948C153.604 118.224 153.832 118.445 154.108 118.44L154.093 117.441ZM158.518 118.375C158.794 118.371 159.014 118.144 159.01 117.868C159.006 117.591 158.779 117.371 158.503 117.375L158.518 118.375ZM160.191 114.212C160.274 113.949 160.128 113.668 159.865 113.585C159.601 113.502 159.32 113.648 159.237 113.911L160.191 114.212ZM158.034 117.725C157.951 117.988 158.097 118.269 158.36 118.352C158.623 118.435 158.904 118.289 158.987 118.026L158.034 117.725ZM159.707 113.562C159.431 113.566 159.21 113.793 159.214 114.069C159.218 114.345 159.445 114.566 159.722 114.562L159.707 113.562ZM166.022 114.468C166.298 114.464 166.518 114.237 166.514 113.961C166.51 113.684 166.283 113.464 166.007 113.468L166.022 114.468ZM158.503 117.375C158.227 117.379 158.006 117.606 158.011 117.882C158.015 118.159 158.242 118.379 158.518 118.375L158.503 117.375ZM171.748 118.178C172.024 118.174 172.245 117.947 172.241 117.671C172.237 117.395 172.009 117.174 171.733 117.179L171.748 118.178ZM154.521 118.211L156.985 114.379L156.143 113.838L153.68 117.67L154.521 118.211ZM156.571 114.608L159.722 114.561L159.707 113.562L156.557 113.608L156.571 114.608ZM153.694 118.233L162.702 130.751L163.514 130.167L154.506 117.648L153.694 118.233ZM163.578 130.287L158.98 117.703L158.041 118.047L162.639 130.63L163.578 130.287ZM154.108 118.44L158.518 118.375L158.503 117.375L154.093 117.441L154.108 118.44ZM159.237 113.911L158.034 117.725L158.987 118.026L160.191 114.212L159.237 113.911ZM159.722 114.562L166.022 114.468L166.007 113.468L159.707 113.562L159.722 114.562ZM158.518 118.375L171.748 118.178L171.733 117.179L158.503 117.375L158.518 118.375Z" fill="#82CFF5"/>
</g>
</g>
</g>
</svg>
