<svg width="51" height="50" viewBox="0 0 51 50" fill="none" xmlns="http://www.w3.org/2000/svg">
<g id="Frame 25" clip-path="url(#clip0_132_2019)">
<g id="Xnix/Line/Diamond">
<g id="Vector">
<path id="Vector_642" fill-rule="evenodd" clip-rule="evenodd" d="M40.0833 17.7084L35.9167 11.4584H30.7083L32.7917 17.7084L25.5 38.5417L40.0833 17.7084Z" stroke="#6BC3EF" stroke-width="2" stroke-linecap="round" stroke-linejoin="round"/>
<path id="Vector_642-2" d="M10.0849 17.1538C9.77852 17.6133 9.9027 18.2342 10.3622 18.5405C10.8218 18.8469 11.4426 18.7227 11.749 18.2632L10.0849 17.1538ZM15.0836 11.4585V10.4585C14.7492 10.4585 14.437 10.6256 14.2515 10.9038L15.0836 11.4585ZM20.2919 12.4585C20.8442 12.4585 21.2919 12.0108 21.2919 11.4585C21.2919 10.9062 20.8442 10.4585 20.2919 10.4585V12.4585ZM11.7361 17.135C11.4194 16.6825 10.7959 16.5725 10.3434 16.8892C9.89096 17.2059 9.78092 17.8295 10.0976 18.2819L11.7361 17.135ZM25.5002 38.5418L24.681 39.1153C24.9674 39.5245 25.5119 39.6595 25.9564 39.4317C26.4009 39.2038 26.6091 38.6829 26.4441 38.2114L25.5002 38.5418ZM19.1524 17.3781C18.9699 16.8568 18.3995 16.5821 17.8782 16.7646C17.3569 16.947 17.0822 17.5175 17.2647 18.0388L19.1524 17.3781ZM10.9169 16.7085C10.3646 16.7085 9.91687 17.1562 9.91687 17.7085C9.91687 18.2608 10.3646 18.7085 10.9169 18.7085V16.7085ZM18.2085 18.7085C18.7608 18.7085 19.2085 18.2608 19.2085 17.7085C19.2085 17.1562 18.7608 16.7085 18.2085 16.7085V18.7085ZM21.2407 11.7748C21.4154 11.2508 21.1322 10.6845 20.6083 10.5099C20.0843 10.3352 19.518 10.6184 19.3434 11.1423L21.2407 11.7748ZM17.26 17.3923C17.0854 17.9163 17.3686 18.4826 17.8925 18.6572C18.4164 18.8319 18.9828 18.5487 19.1574 18.0248L17.26 17.3923ZM20.292 10.4586C19.7397 10.4586 19.292 10.9063 19.292 11.4586C19.292 12.0108 19.7397 12.4586 20.292 12.4586V10.4586ZM30.7087 12.4586C31.261 12.4586 31.7087 12.0108 31.7087 11.4586C31.7087 10.9063 31.261 10.4586 30.7087 10.4586V12.4586ZM18.2087 16.7085C17.6564 16.7085 17.2087 17.1563 17.2087 17.7085C17.2087 18.2608 17.6564 18.7085 18.2087 18.7085V16.7085ZM40.0837 18.7085C40.636 18.7085 41.0837 18.2608 41.0837 17.7085C41.0837 17.1563 40.636 16.7085 40.0837 16.7085V18.7085ZM11.749 18.2632L15.9156 12.0132L14.2515 10.9038L10.0849 17.1538L11.749 18.2632ZM15.0836 12.4585H20.2919V10.4585H15.0836V12.4585ZM10.0976 18.2819L24.681 39.1153L26.3194 37.9683L11.7361 17.135L10.0976 18.2819ZM26.4441 38.2114L19.1524 17.3781L17.2647 18.0388L24.5563 38.8721L26.4441 38.2114ZM10.9169 18.7085H18.2085V16.7085H10.9169V18.7085ZM19.3434 11.1423L17.26 17.3923L19.1574 18.0248L21.2407 11.7748L19.3434 11.1423ZM20.292 12.4586H30.7087V10.4586H20.292V12.4586ZM18.2087 18.7085H40.0837V16.7085H18.2087V18.7085Z" fill="#6BC3EF"/>
</g>
</g>
</g>
<defs>
<clipPath id="clip0_132_2019">
<rect width="50" height="50" fill="white" transform="translate(0.5)"/>
</clipPath>
</defs>
</svg>
