<svg width="53" height="53" viewBox="0 0 53 53" fill="none" xmlns="http://www.w3.org/2000/svg">
<g id="Xnix/Line/Rocket" opacity="0.7">
<g id="Vector">
<path id="Vector-50" fill-rule="evenodd" clip-rule="evenodd" d="M21.6519 19.9185C20.1568 22.1622 18.812 24.4081 17.9861 25.881L15.9124 23.7279C14.6225 22.3654 14.6225 20.2321 15.9124 18.8696C16.523 18.2291 17.3684 17.8654 18.2533 17.8626H23.0785C22.5971 18.5229 22.1178 19.2119 21.6519 19.9185Z" stroke="#C0E7FA" stroke-width="4" stroke-linecap="round" stroke-linejoin="round"/>
<path id="Vector-51" fill-rule="evenodd" clip-rule="evenodd" d="M33.0811 31.3466C30.8375 32.8417 28.5916 34.1865 27.1187 35.0125L29.2718 37.0861C30.6343 38.3761 32.7675 38.3761 34.1301 37.0861C34.7706 36.4755 35.1343 35.6301 35.1371 34.7453V29.92C34.4768 30.4015 33.7878 30.8807 33.0811 31.3466Z" stroke="#C0E7FA" stroke-width="4" stroke-linecap="round" stroke-linejoin="round"/>
<path id="Vector-52" d="M17.5769 30.5632C18.3578 29.782 18.3575 28.5157 17.5763 27.7348C16.7951 26.9539 15.5287 26.9542 14.7479 27.7354L17.5769 30.5632ZM9.62674 32.8587C8.84586 33.6399 8.84613 34.9063 9.62735 35.6871C10.4086 36.468 11.6749 36.4678 12.4558 35.6865L9.62674 32.8587ZM21.4176 34.4076C22.1983 33.6262 22.1977 32.3599 21.4164 31.5792C20.635 30.7985 19.3686 30.799 18.5879 31.5804L21.4176 34.4076ZM16.0307 34.1399C15.25 34.9213 15.2505 36.1876 16.0319 36.9683C16.8133 37.749 18.0796 37.7485 18.8603 36.9671L16.0307 34.1399ZM19.3993 24.4562C18.6173 23.6761 17.351 23.6776 16.5709 24.4596C15.7908 25.2416 15.7923 26.5079 16.5743 27.288L19.3993 24.4562ZM22.5625 30.4367L23.9784 29.0242L23.975 29.0208L22.5625 30.4367ZM25.7112 36.4249C26.4913 37.2069 27.7576 37.2084 28.5396 36.4283C29.3216 35.6482 29.3231 34.3819 28.543 33.5999L25.7112 36.4249ZM21.419 16.7337C20.8029 17.6506 21.0467 18.8932 21.9635 19.5093C22.8803 20.1253 24.1229 19.8816 24.739 18.9648L21.419 16.7337ZM27.0938 13.1433L25.8154 11.6052C25.7864 11.6293 25.7582 11.6541 25.7307 11.6797L27.0938 13.1433ZM41.7505 11.2485L43.7406 11.0502C43.6462 10.1025 42.8965 9.35283 41.9488 9.2584L41.7505 11.2485ZM39.8557 25.9075L41.3193 27.2705C41.3451 27.2428 41.3701 27.2144 41.3943 27.1853L39.8557 25.9075ZM34.0343 28.2622C33.1174 28.8783 32.8737 30.1209 33.4897 31.0377C34.1058 31.9545 35.3485 32.1983 36.2653 31.5822L34.0343 28.2622ZM25.2636 38.251C26.0448 37.4701 26.0451 36.2038 25.2642 35.4226C24.4833 34.6414 23.217 34.6411 22.4358 35.422L25.2636 38.251ZM17.3125 40.5431C16.5312 41.324 16.531 42.5903 17.3118 43.3715C18.0927 44.1528 19.3591 44.153 20.1403 43.3721L17.3125 40.5431ZM37.478 18.3492C38.259 17.5682 38.259 16.3018 37.478 15.5208C36.6969 14.7397 35.4306 14.7397 34.6495 15.5208L37.478 18.3492ZM31.9178 18.2525C31.1368 19.0335 31.1368 20.2999 31.9178 21.0809C32.6989 21.862 33.9652 21.862 34.7463 21.0809L31.9178 18.2525ZM14.7479 27.7354L9.62674 32.8587L12.4558 35.6865L17.5769 30.5632L14.7479 27.7354ZM18.5879 31.5804L16.0307 34.1399L18.8603 36.9671L21.4176 34.4076L18.5879 31.5804ZM16.5743 27.288L21.1499 31.8527L23.975 29.0208L19.3993 24.4562L16.5743 27.288ZM21.1465 31.8492L25.7112 36.4249L28.543 33.5999L23.9784 29.0242L21.1465 31.8492ZM24.739 18.9648C25.8075 17.3747 27.0549 15.9125 28.4568 14.6069L25.7307 11.6797C24.1049 13.1939 22.6582 14.8897 21.419 16.7337L24.739 18.9648ZM28.3722 14.6814C28.7687 14.3518 29.4908 14.0044 30.591 13.7173C31.6597 13.4384 32.9299 13.2556 34.2802 13.1515C36.982 12.9432 39.8031 13.0644 41.5522 13.2387L41.9488 9.2584C40.0187 9.06609 36.9568 8.93331 33.9727 9.16337C32.4801 9.27844 30.9566 9.48793 29.5811 9.84686C28.237 10.1976 26.8642 10.7335 25.8154 11.6052L28.3722 14.6814ZM39.7603 11.4468C39.9346 13.1959 40.0558 16.017 39.8475 18.7191C39.7434 20.0695 39.5606 21.34 39.2817 22.4091C38.9946 23.5096 38.6471 24.2324 38.3172 24.6296L41.3943 27.1853C42.2657 26.1361 42.8015 24.7631 43.1522 23.4188C43.5111 22.043 43.7206 20.5193 43.8356 19.0265C44.0657 16.0422 43.9329 12.9803 43.7406 11.0502L39.7603 11.4468ZM38.3921 24.5444C37.0865 25.9463 35.6243 27.1937 34.0343 28.2622L36.2653 31.5822C38.1093 30.3431 39.8051 28.8964 41.3193 27.2705L38.3921 24.5444ZM22.4358 35.422L17.3125 40.5431L20.1403 43.3721L25.2636 38.251L22.4358 35.422ZM34.6495 15.5208L31.9178 18.2525L34.7463 21.0809L37.478 18.3492L34.6495 15.5208Z" fill="#C0E7FA"/>
</g>
</g>
</svg>
