<svg width="42" height="56" viewBox="0 0 42 56" fill="none" xmlns="http://www.w3.org/2000/svg">
<g id="Xnix/Line/Wifi" opacity="0.7">
<g id="Xnix_Line_">
<path id="Vector" fill-rule="evenodd" clip-rule="evenodd" d="M16.1076 30.1517C17.4689 28.9543 19.5522 29.0769 20.7609 30.4255C21.9695 31.774 21.8458 33.8379 20.4845 35.0352C19.1232 36.2325 17.0399 36.11 15.8313 34.7614C14.6226 33.4129 14.7464 31.349 16.1076 30.1517Z" stroke="#95D893" stroke-width="4" stroke-linecap="round" stroke-linejoin="round"/>
<path id="Vector-2" d="M6.01072 32.5691C5.81227 33.6506 6.53647 34.6877 7.62825 34.8855C8.72004 35.0833 9.76597 34.3669 9.96441 33.2854L6.01072 32.5691ZM19.9744 24.4808C21.0819 24.4136 21.9238 23.4695 21.8548 22.3722C21.7857 21.2748 20.8319 20.4396 19.7244 20.5068L19.9744 24.4808ZM0.58124 31.8804C0.378773 32.9612 1.09911 34.0009 2.19015 34.2027C3.2812 34.4045 4.3298 33.6919 4.53226 32.6112L0.58124 31.8804ZM20.014 19.0505C21.118 18.9403 21.9217 17.9641 21.8092 16.8702C21.6967 15.7763 20.7106 14.9789 19.6067 15.0892L20.014 19.0505ZM9.96441 33.2854C10.8575 28.4181 14.99 24.7833 19.9744 24.4808L19.7244 20.5068C12.8952 20.9212 7.23435 25.9004 6.01072 32.5691L9.96441 33.2854ZM4.53226 32.6112C5.54654 27.1969 8.25122 23.9851 11.2182 22.0293C14.2467 20.0329 17.6479 19.2868 20.014 19.0505L19.6067 15.0892C16.8569 15.3638 12.7498 16.2351 8.98972 18.7137C5.16815 21.2328 1.80397 25.3535 0.58124 31.8804L4.53226 32.6112Z" fill="#95D893"/>
</g>
</g>
</svg>
