<svg width="15" height="15" viewBox="0 0 15 15" fill="none" xmlns="http://www.w3.org/2000/svg">
<g id="User Interface / Broken Chain">
<path id="Vector" d="M2.97506 6.61876C3.14082 6.64031 3.30835 6.59512 3.4408 6.49315C3.57324 6.39118 3.65976 6.24077 3.68131 6.07501C3.70285 5.90925 3.65767 5.74172 3.5557 5.60927C3.45373 5.47682 3.30332 5.39031 3.13756 5.36876L2.03756 5.09376C1.95736 5.06917 1.87304 5.06098 1.78961 5.06967C1.70618 5.07837 1.62536 5.10376 1.55195 5.14435C1.47854 5.18494 1.41406 5.23988 1.36234 5.30592C1.31061 5.37195 1.27271 5.44772 1.25089 5.52871C1.22907 5.6097 1.22377 5.69426 1.23532 5.77734C1.24687 5.86042 1.27502 5.94033 1.3181 6.0123C1.36118 6.08427 1.4183 6.14684 1.48607 6.19627C1.55384 6.24569 1.63086 6.28097 1.71256 6.30001L2.81256 6.59376C2.86492 6.61123 2.91986 6.61968 2.97506 6.61876ZM5.38756 3.12501C5.42418 3.26136 5.50589 3.38129 5.61938 3.46528C5.73287 3.54926 5.87145 3.59234 6.01256 3.58751C6.06638 3.59615 6.12123 3.59615 6.17506 3.58751C6.33369 3.54362 6.46861 3.43894 6.55052 3.29618C6.63243 3.15341 6.65472 2.98411 6.61256 2.82501L6.31881 1.72501C6.29977 1.64332 6.26449 1.56629 6.21506 1.49852C6.16564 1.43075 6.10307 1.37363 6.0311 1.33055C5.95913 1.28747 5.87922 1.25932 5.79614 1.24777C5.71306 1.23622 5.6285 1.24152 5.54751 1.26334C5.46652 1.28516 5.39075 1.32306 5.32472 1.37479C5.25868 1.42651 5.20373 1.49099 5.16315 1.5644C5.12256 1.63781 5.09716 1.71863 5.08847 1.80206C5.07978 1.88549 5.08797 1.96981 5.11256 2.05001L5.38756 3.12501ZM8.40631 9.37501C8.34792 9.31355 8.27764 9.26461 8.19974 9.23116C8.12184 9.19772 8.03795 9.18048 7.95318 9.18048C7.86841 9.18048 7.78452 9.19772 7.70662 9.23116C7.62872 9.26461 7.55844 9.31355 7.50006 9.37501L5.31256 11.6C5.05536 11.8468 4.71273 11.9845 4.35631 11.9845C3.99988 11.9845 3.65725 11.8468 3.40006 11.6C3.27345 11.475 3.17292 11.3261 3.10431 11.162C3.0357 10.9978 3.00037 10.8217 3.00037 10.6438C3.00037 10.4658 3.0357 10.2897 3.10431 10.1255C3.17292 9.9614 3.27345 9.8125 3.40006 9.68751L5.62506 7.50001C5.69048 7.44398 5.74362 7.37503 5.78113 7.29749C5.81865 7.21995 5.83973 7.13549 5.84306 7.04942C5.84638 6.96334 5.83188 6.87751 5.80045 6.79731C5.76903 6.7171 5.72137 6.64426 5.66046 6.58335C5.59955 6.52244 5.52671 6.47478 5.44651 6.44336C5.3663 6.41194 5.28047 6.39743 5.1944 6.40076C5.10832 6.40408 5.02387 6.42516 4.94633 6.46268C4.86878 6.50019 4.79984 6.55333 4.74381 6.61876L2.50006 8.80001C2.25711 9.04295 2.0644 9.33137 1.93291 9.6488C1.80143 9.96622 1.73376 10.3064 1.73376 10.65C1.73376 10.9936 1.80143 11.3338 1.93291 11.6512C2.0644 11.9686 2.25711 12.2571 2.50006 12.5C2.743 12.743 3.03142 12.9357 3.34884 13.0671C3.66627 13.1986 4.00648 13.2663 4.35006 13.2663C4.69363 13.2663 5.03385 13.1986 5.35127 13.0671C5.66869 12.9357 5.95711 12.743 6.20006 12.5L8.40631 10.2938C8.46975 10.2352 8.52038 10.1642 8.55501 10.0851C8.58964 10.0061 8.60751 9.9207 8.60751 9.83438C8.60751 9.74807 8.58964 9.66269 8.55501 9.58363C8.52038 9.50457 8.46975 9.43353 8.40631 9.37501ZM3.23756 4.11876C3.35397 4.23422 3.51109 4.29932 3.67506 4.30001C3.75731 4.30048 3.83885 4.28472 3.915 4.25361C3.99115 4.22251 4.06041 4.17668 4.11881 4.11876C4.23521 4.00166 4.30055 3.84325 4.30055 3.67813C4.30055 3.51302 4.23521 3.35461 4.11881 3.23751L3.31256 2.43126C3.19299 2.32887 3.0392 2.27536 2.8819 2.28144C2.7246 2.28751 2.57539 2.35272 2.46408 2.46403C2.35277 2.57534 2.28756 2.72455 2.28149 2.88185C2.27541 3.03915 2.32891 3.19294 2.43131 3.31251L3.23756 4.11876ZM13.2876 8.70001L12.1876 8.40626C12.106 8.37808 12.0196 8.36708 11.9336 8.37395C11.8476 8.38082 11.764 8.40541 11.688 8.44617C11.612 8.48694 11.5452 8.54299 11.4919 8.6108C11.4387 8.67862 11.4 8.75673 11.3784 8.84022C11.3567 8.92372 11.3526 9.01078 11.3663 9.09594C11.3799 9.1811 11.4111 9.26251 11.4577 9.33505C11.5044 9.40759 11.5655 9.46969 11.6374 9.51744C11.7092 9.56519 11.7901 9.59756 11.8751 9.61251L12.9751 9.90626H13.1376C13.3033 9.92781 13.4708 9.88262 13.6033 9.78065C13.7357 9.67868 13.8223 9.52827 13.8438 9.36251C13.8654 9.19675 13.8202 9.02922 13.7182 8.89677C13.6162 8.76432 13.4658 8.67781 13.3001 8.65626L13.2876 8.70001ZM9.61256 11.875C9.59086 11.7958 9.55375 11.7216 9.50336 11.6567C9.45297 11.5918 9.39028 11.5375 9.31888 11.4969C9.24748 11.4562 9.16877 11.4301 9.08725 11.4199C9.00574 11.4097 8.92301 11.4157 8.84381 11.4375C8.68517 11.4814 8.55025 11.5861 8.46834 11.7288C8.38643 11.8716 8.36414 12.0409 8.40631 12.2L8.70006 13.3C8.73668 13.4364 8.81839 13.5563 8.93188 13.6403C9.04537 13.7243 9.18395 13.7673 9.32506 13.7625C9.37905 13.7687 9.43356 13.7687 9.48756 13.7625C9.56736 13.7415 9.6422 13.7049 9.70777 13.6548C9.77334 13.6047 9.82835 13.5421 9.8696 13.4706C9.91086 13.3991 9.93755 13.3202 9.94814 13.2383C9.95873 13.1565 9.95301 13.0734 9.93131 12.9938L9.61256 11.875ZM11.7626 10.8938C11.643 10.7914 11.4892 10.7379 11.3319 10.7439C11.1746 10.75 11.0254 10.8152 10.9141 10.9265C10.8028 11.0378 10.7376 11.1871 10.7315 11.3443C10.7254 11.5016 10.7789 11.6554 10.8813 11.775L11.6876 12.5813C11.8047 12.6977 11.9631 12.763 12.1282 12.763C12.2933 12.763 12.4517 12.6977 12.5688 12.5813C12.6852 12.4642 12.7506 12.3057 12.7506 12.1406C12.7506 11.9755 12.6852 11.8171 12.5688 11.7L11.7626 10.8938ZM13.2501 4.37501C13.2598 3.85528 13.1135 3.34457 12.83 2.90882C12.5466 2.47307 12.1391 2.13227 11.6601 1.93043C11.181 1.72859 10.6525 1.67498 10.1427 1.77651C9.63288 1.87803 9.16521 2.13005 8.80006 2.50001L6.59381 4.72501C6.53471 4.78451 6.48792 4.85508 6.45609 4.93267C6.42427 5.01026 6.40804 5.09335 6.40833 5.17722C6.40862 5.26108 6.42542 5.34406 6.45778 5.42143C6.49014 5.4988 6.53743 5.56904 6.59693 5.62813C6.65644 5.68723 6.727 5.73402 6.80459 5.76585C6.88218 5.79767 6.96528 5.8139 7.04914 5.81361C7.133 5.81332 7.21599 5.79652 7.29336 5.76416C7.37072 5.7318 7.44096 5.68451 7.50006 5.62501L9.68756 3.40001C9.94475 3.15325 10.2874 3.01547 10.6438 3.01547C11.0002 3.01547 11.3429 3.15325 11.6001 3.40001C11.7267 3.525 11.8272 3.6739 11.8958 3.83805C11.9644 4.0022 11.9997 4.17834 11.9997 4.35626C11.9997 4.53417 11.9644 4.71032 11.8958 4.87447C11.8272 5.03862 11.7267 5.18751 11.6001 5.31251L9.37506 7.50001C9.25865 7.61711 9.19331 7.77552 9.19331 7.94063C9.19331 8.10575 9.25865 8.26416 9.37506 8.38126C9.49216 8.49766 9.65056 8.563 9.81568 8.563C9.9808 8.563 10.1392 8.49766 10.2563 8.38126L12.5001 6.20001C12.9784 5.71272 13.2476 5.05786 13.2501 4.37501Z" fill="#C0E7FA"/>
</g>
</svg>
