<svg width="32" height="33" viewBox="0 0 32 33" fill="none" xmlns="http://www.w3.org/2000/svg">
<g id="User Interface / Newspaper">
<path id="Vector" d="M22.6666 15.125H21.3333C20.9797 15.125 20.6405 15.2699 20.3905 15.5277C20.1404 15.7856 20 16.1353 20 16.5C20 16.8647 20.1404 17.2144 20.3905 17.4723C20.6405 17.7301 20.9797 17.875 21.3333 17.875H22.6666C23.0202 17.875 23.3594 17.7301 23.6094 17.4723C23.8595 17.2144 24 16.8647 24 16.5C24 16.1353 23.8595 15.7856 23.6094 15.5277C23.3594 15.2699 23.0202 15.125 22.6666 15.125ZM22.6666 20.625H21.3333C20.9797 20.625 20.6405 20.7699 20.3905 21.0277C20.1404 21.2856 20 21.6353 20 22C20 22.3647 20.1404 22.7144 20.3905 22.9723C20.6405 23.2301 20.9797 23.375 21.3333 23.375H22.6666C23.0202 23.375 23.3594 23.2301 23.6094 22.9723C23.8595 22.7144 24 22.3647 24 22C24 21.6353 23.8595 21.2856 23.6094 21.0277C23.3594 20.7699 23.0202 20.625 22.6666 20.625ZM14.6666 12.375H22.6666C23.0202 12.375 23.3594 12.2301 23.6094 11.9723C23.8595 11.7144 24 11.3647 24 11C24 10.6353 23.8595 10.2856 23.6094 10.0277C23.3594 9.76987 23.0202 9.625 22.6666 9.625H14.6666C14.313 9.625 13.9739 9.76987 13.7238 10.0277C13.4738 10.2856 13.3333 10.6353 13.3333 11C13.3333 11.3647 13.4738 11.7144 13.7238 11.9723C13.9739 12.2301 14.313 12.375 14.6666 12.375ZM28 4.125H9.33329C8.97967 4.125 8.64053 4.26987 8.39048 4.52773C8.14044 4.78559 7.99996 5.13533 7.99996 5.5V9.625H3.99996C3.64634 9.625 3.3072 9.76987 3.05715 10.0277C2.8071 10.2856 2.66663 10.6353 2.66663 11V24.75C2.66663 25.844 3.08805 26.8932 3.8382 27.6668C4.58834 28.4404 5.60576 28.875 6.66663 28.875H24C25.4144 28.875 26.771 28.2955 27.7712 27.2641C28.7714 26.2326 29.3333 24.8337 29.3333 23.375V5.5C29.3333 5.13533 29.1928 4.78559 28.9428 4.52773C28.6927 4.26987 28.3536 4.125 28 4.125ZM7.99996 24.75C7.99996 25.1147 7.85948 25.4644 7.60944 25.7223C7.35939 25.9801 7.02025 26.125 6.66663 26.125C6.313 26.125 5.97387 25.9801 5.72382 25.7223C5.47377 25.4644 5.33329 25.1147 5.33329 24.75V12.375H7.99996V24.75ZM26.6666 23.375C26.6666 24.1043 26.3857 24.8038 25.8856 25.3195C25.3855 25.8353 24.7072 26.125 24 26.125H10.4266C10.5819 25.6841 10.663 25.2191 10.6666 24.75V6.875H26.6666V23.375ZM14.6666 17.875H16C16.3536 17.875 16.6927 17.7301 16.9428 17.4723C17.1928 17.2144 17.3333 16.8647 17.3333 16.5C17.3333 16.1353 17.1928 15.7856 16.9428 15.5277C16.6927 15.2699 16.3536 15.125 16 15.125H14.6666C14.313 15.125 13.9739 15.2699 13.7238 15.5277C13.4738 15.7856 13.3333 16.1353 13.3333 16.5C13.3333 16.8647 13.4738 17.2144 13.7238 17.4723C13.9739 17.7301 14.313 17.875 14.6666 17.875ZM14.6666 23.375H16C16.3536 23.375 16.6927 23.2301 16.9428 22.9723C17.1928 22.7144 17.3333 22.3647 17.3333 22C17.3333 21.6353 17.1928 21.2856 16.9428 21.0277C16.6927 20.7699 16.3536 20.625 16 20.625H14.6666C14.313 20.625 13.9739 20.7699 13.7238 21.0277C13.4738 21.2856 13.3333 21.6353 13.3333 22C13.3333 22.3647 13.4738 22.7144 13.7238 22.9723C13.9739 23.2301 14.313 23.375 14.6666 23.375Z" fill="#DCF4FF"/>
</g>
</svg>
